<mxfile host="app.diagrams.net" modified="2021-12-17T18:08:10.647Z" agent="5.0 (Macintosh; Intel Mac OS X 10_15_7) AppleWebKit/537.36 (KHTML, like Gecko) Chrome/96.0.4664.110 Safari/537.36" etag="6r2vVcSwm8-xOD6ZFBkk" version="15.9.6" type="github">
  <diagram id="Rh7d_q-UWcMXQ324UsMB" name="Page-1">
    <mxGraphModel dx="946" dy="501" grid="1" gridSize="10" guides="1" tooltips="1" connect="1" arrows="1" fold="1" page="1" pageScale="1" pageWidth="827" pageHeight="1169" math="0" shadow="0">
      <root>
        <mxCell id="0" />
        <mxCell id="1" parent="0" />
        <mxCell id="Ym5PI7sJgfRGB3oKuW9N-112" value="PMC" style="rounded=1;arcSize=10;dashed=1;strokeColor=#ff0000;fillColor=#B3B3B3;gradientColor=none;dashPattern=8 4;strokeWidth=2;verticalAlign=top;fontSize=28;align=left;" vertex="1" parent="1">
          <mxGeometry x="260" y="510" width="1220" height="160" as="geometry" />
        </mxCell>
        <mxCell id="Ym5PI7sJgfRGB3oKuW9N-26" value="" style="rounded=1;arcSize=10;dashed=1;dashPattern=1 1;strokeWidth=2;strokeColor=#FF3333;" vertex="1" parent="1">
          <mxGeometry x="160" y="843" width="199.5" height="199.5" as="geometry" />
        </mxCell>
        <mxCell id="Ym5PI7sJgfRGB3oKuW9N-13" value="NGO 1" style="rounded=1;fillColor=#fa6800;strokeColor=#C73500;shadow=1;fontStyle=1;fontColor=#000000;fontSize=14;" vertex="1" parent="1">
          <mxGeometry x="280" y="370" width="200" height="60" as="geometry" />
        </mxCell>
        <mxCell id="Ym5PI7sJgfRGB3oKuW9N-14" value="PIC" style="rounded=1;fillColor=#FF6666;strokeColor=none;shadow=1;gradientColor=none;fontStyle=1;fontColor=#FFFFFF;fontSize=14;" vertex="1" parent="1">
          <mxGeometry x="280" y="600" width="200" height="60" as="geometry" />
        </mxCell>
        <mxCell id="Ym5PI7sJgfRGB3oKuW9N-15" value="Ops" style="rounded=1;fillColor=#10739E;strokeColor=none;shadow=1;gradientColor=none;fontStyle=1;fontColor=#FFFFFF;fontSize=14;" vertex="1" parent="1">
          <mxGeometry x="160" y="730" width="200" height="60" as="geometry" />
        </mxCell>
        <mxCell id="Ym5PI7sJgfRGB3oKuW9N-16" value="新媒体" style="rounded=1;fillColor=#10739E;strokeColor=none;shadow=1;gradientColor=none;fontStyle=1;fontColor=#FFFFFF;fontSize=14;" vertex="1" parent="1">
          <mxGeometry x="180" y="860" width="60" height="60" as="geometry" />
        </mxCell>
        <mxCell id="Ym5PI7sJgfRGB3oKuW9N-19" value="" style="edgeStyle=elbowEdgeStyle;elbow=vertical;strokeWidth=4;endArrow=block;endFill=1;fontStyle=1;strokeColor=#23445D;" edge="1" parent="1" source="Ym5PI7sJgfRGB3oKuW9N-14" target="Ym5PI7sJgfRGB3oKuW9N-15">
          <mxGeometry x="62" y="165.5" width="100" height="100" as="geometry">
            <mxPoint x="62" y="265.5" as="sourcePoint" />
            <mxPoint x="162" y="165.5" as="targetPoint" />
          </mxGeometry>
        </mxCell>
        <mxCell id="Ym5PI7sJgfRGB3oKuW9N-20" value="" style="edgeStyle=elbowEdgeStyle;elbow=vertical;strokeWidth=4;endArrow=block;endFill=1;fontStyle=1;strokeColor=#23445D;" edge="1" parent="1">
          <mxGeometry x="-45" y="200" width="100" height="100" as="geometry">
            <mxPoint x="255" y="790" as="sourcePoint" />
            <mxPoint x="255" y="845" as="targetPoint" />
            <Array as="points">
              <mxPoint x="255" y="830" />
            </Array>
          </mxGeometry>
        </mxCell>
        <mxCell id="Ym5PI7sJgfRGB3oKuW9N-21" value="Tech" style="rounded=1;fillColor=#10739E;strokeColor=none;shadow=1;gradientColor=none;fontStyle=1;fontColor=#FFFFFF;fontSize=14;" vertex="1" parent="1">
          <mxGeometry x="390" y="730" width="200" height="60" as="geometry" />
        </mxCell>
        <mxCell id="Ym5PI7sJgfRGB3oKuW9N-22" value="" style="edgeStyle=elbowEdgeStyle;elbow=vertical;strokeWidth=4;endArrow=block;endFill=1;fontStyle=1;strokeColor=#23445D;" edge="1" parent="1" source="Ym5PI7sJgfRGB3oKuW9N-21">
          <mxGeometry x="170" y="200" width="100" height="100" as="geometry">
            <mxPoint x="170" y="300" as="sourcePoint" />
            <mxPoint x="490" y="840" as="targetPoint" />
          </mxGeometry>
        </mxCell>
        <mxCell id="Ym5PI7sJgfRGB3oKuW9N-23" value="客服" style="rounded=1;fillColor=#10739E;strokeColor=none;shadow=1;gradientColor=none;fontStyle=1;fontColor=#FFFFFF;fontSize=14;" vertex="1" parent="1">
          <mxGeometry x="280" y="860" width="60" height="60" as="geometry" />
        </mxCell>
        <mxCell id="Ym5PI7sJgfRGB3oKuW9N-24" value="运营" style="rounded=1;fillColor=#10739E;strokeColor=none;shadow=1;gradientColor=none;fontStyle=1;fontColor=#FFFFFF;fontSize=14;" vertex="1" parent="1">
          <mxGeometry x="180" y="950" width="60" height="60" as="geometry" />
        </mxCell>
        <mxCell id="Ym5PI7sJgfRGB3oKuW9N-25" value="策划" style="rounded=1;fillColor=#10739E;strokeColor=none;shadow=1;gradientColor=none;fontStyle=1;fontColor=#FFFFFF;fontSize=14;" vertex="1" parent="1">
          <mxGeometry x="280" y="950" width="60" height="60" as="geometry" />
        </mxCell>
        <mxCell id="Ym5PI7sJgfRGB3oKuW9N-29" value="" style="rounded=1;arcSize=10;dashed=1;fillColor=none;gradientColor=none;dashPattern=1 1;strokeWidth=2;strokeColor=#009900;" vertex="1" parent="1">
          <mxGeometry x="400" y="843" width="199.5" height="199.5" as="geometry" />
        </mxCell>
        <mxCell id="Ym5PI7sJgfRGB3oKuW9N-30" value="产品" style="rounded=1;fillColor=#10739E;strokeColor=none;shadow=1;gradientColor=none;fontStyle=1;fontColor=#FFFFFF;fontSize=14;" vertex="1" parent="1">
          <mxGeometry x="420" y="860" width="60" height="60" as="geometry" />
        </mxCell>
        <mxCell id="Ym5PI7sJgfRGB3oKuW9N-31" value="设计" style="rounded=1;fillColor=#10739E;strokeColor=none;shadow=1;gradientColor=none;fontStyle=1;fontColor=#FFFFFF;fontSize=14;" vertex="1" parent="1">
          <mxGeometry x="520" y="860" width="60" height="60" as="geometry" />
        </mxCell>
        <mxCell id="Ym5PI7sJgfRGB3oKuW9N-32" value="开发" style="rounded=1;fillColor=#10739E;strokeColor=none;shadow=1;gradientColor=none;fontStyle=1;fontColor=#FFFFFF;fontSize=14;" vertex="1" parent="1">
          <mxGeometry x="420" y="950" width="60" height="60" as="geometry" />
        </mxCell>
        <mxCell id="Ym5PI7sJgfRGB3oKuW9N-33" value="运维" style="rounded=1;fillColor=#10739E;strokeColor=none;shadow=1;gradientColor=none;fontStyle=1;fontColor=#FFFFFF;fontSize=14;" vertex="1" parent="1">
          <mxGeometry x="520" y="950" width="60" height="60" as="geometry" />
        </mxCell>
        <mxCell id="Ym5PI7sJgfRGB3oKuW9N-37" value="" style="edgeStyle=elbowEdgeStyle;elbow=vertical;strokeWidth=4;endArrow=block;endFill=1;fontStyle=1;strokeColor=#23445D;exitX=0.5;exitY=1;exitDx=0;exitDy=0;" edge="1" parent="1" source="Ym5PI7sJgfRGB3oKuW9N-14">
          <mxGeometry x="301" y="165" width="100" height="100" as="geometry">
            <mxPoint x="390" y="685.5" as="sourcePoint" />
            <mxPoint x="499" y="729.5" as="targetPoint" />
          </mxGeometry>
        </mxCell>
        <mxCell id="Ym5PI7sJgfRGB3oKuW9N-72" value="NGO 2" style="rounded=1;fillColor=#fa6800;strokeColor=#C73500;shadow=1;fontStyle=1;fontColor=#000000;fontSize=14;" vertex="1" parent="1">
          <mxGeometry x="760" y="370" width="200" height="60" as="geometry" />
        </mxCell>
        <mxCell id="Ym5PI7sJgfRGB3oKuW9N-73" value="NGO 3" style="rounded=1;fillColor=#fa6800;strokeColor=#C73500;shadow=1;fontStyle=1;fontColor=#000000;fontSize=14;" vertex="1" parent="1">
          <mxGeometry x="1250" y="370" width="200" height="60" as="geometry" />
        </mxCell>
        <mxCell id="Ym5PI7sJgfRGB3oKuW9N-74" value="" style="rounded=1;arcSize=10;dashed=1;dashPattern=1 1;strokeWidth=2;strokeColor=#FF3333;" vertex="1" parent="1">
          <mxGeometry x="640" y="843" width="199.5" height="199.5" as="geometry" />
        </mxCell>
        <mxCell id="Ym5PI7sJgfRGB3oKuW9N-75" value="PIC" style="rounded=1;fillColor=#FF6666;strokeColor=none;shadow=1;gradientColor=none;fontStyle=1;fontColor=#FFFFFF;fontSize=14;" vertex="1" parent="1">
          <mxGeometry x="760" y="600" width="200" height="60" as="geometry" />
        </mxCell>
        <mxCell id="Ym5PI7sJgfRGB3oKuW9N-76" value="Ops" style="rounded=1;fillColor=#10739E;strokeColor=none;shadow=1;gradientColor=none;fontStyle=1;fontColor=#FFFFFF;fontSize=14;" vertex="1" parent="1">
          <mxGeometry x="640" y="730" width="200" height="60" as="geometry" />
        </mxCell>
        <mxCell id="Ym5PI7sJgfRGB3oKuW9N-77" value="新媒体" style="rounded=1;fillColor=#10739E;strokeColor=none;shadow=1;gradientColor=none;fontStyle=1;fontColor=#FFFFFF;fontSize=14;" vertex="1" parent="1">
          <mxGeometry x="660" y="860" width="60" height="60" as="geometry" />
        </mxCell>
        <mxCell id="Ym5PI7sJgfRGB3oKuW9N-78" value="" style="edgeStyle=elbowEdgeStyle;elbow=vertical;strokeWidth=4;endArrow=block;endFill=1;fontStyle=1;strokeColor=#23445D;" edge="1" parent="1" source="Ym5PI7sJgfRGB3oKuW9N-75" target="Ym5PI7sJgfRGB3oKuW9N-76">
          <mxGeometry x="542" y="165.5" width="100" height="100" as="geometry">
            <mxPoint x="542" y="265.5" as="sourcePoint" />
            <mxPoint x="642" y="165.5" as="targetPoint" />
          </mxGeometry>
        </mxCell>
        <mxCell id="Ym5PI7sJgfRGB3oKuW9N-79" value="" style="edgeStyle=elbowEdgeStyle;elbow=vertical;strokeWidth=4;endArrow=block;endFill=1;fontStyle=1;strokeColor=#23445D;" edge="1" parent="1">
          <mxGeometry x="435" y="200" width="100" height="100" as="geometry">
            <mxPoint x="735" y="790" as="sourcePoint" />
            <mxPoint x="735" y="845" as="targetPoint" />
            <Array as="points">
              <mxPoint x="735" y="830" />
            </Array>
          </mxGeometry>
        </mxCell>
        <mxCell id="Ym5PI7sJgfRGB3oKuW9N-80" value="Tech" style="rounded=1;fillColor=#10739E;strokeColor=none;shadow=1;gradientColor=none;fontStyle=1;fontColor=#FFFFFF;fontSize=14;" vertex="1" parent="1">
          <mxGeometry x="870" y="730" width="200" height="60" as="geometry" />
        </mxCell>
        <mxCell id="Ym5PI7sJgfRGB3oKuW9N-81" value="" style="edgeStyle=elbowEdgeStyle;elbow=vertical;strokeWidth=4;endArrow=block;endFill=1;fontStyle=1;strokeColor=#23445D;" edge="1" parent="1" source="Ym5PI7sJgfRGB3oKuW9N-80">
          <mxGeometry x="650" y="200" width="100" height="100" as="geometry">
            <mxPoint x="650" y="300" as="sourcePoint" />
            <mxPoint x="970" y="840" as="targetPoint" />
          </mxGeometry>
        </mxCell>
        <mxCell id="Ym5PI7sJgfRGB3oKuW9N-82" value="客服" style="rounded=1;fillColor=#10739E;strokeColor=none;shadow=1;gradientColor=none;fontStyle=1;fontColor=#FFFFFF;fontSize=14;" vertex="1" parent="1">
          <mxGeometry x="760" y="860" width="60" height="60" as="geometry" />
        </mxCell>
        <mxCell id="Ym5PI7sJgfRGB3oKuW9N-83" value="运营" style="rounded=1;fillColor=#10739E;strokeColor=none;shadow=1;gradientColor=none;fontStyle=1;fontColor=#FFFFFF;fontSize=14;" vertex="1" parent="1">
          <mxGeometry x="660" y="950" width="60" height="60" as="geometry" />
        </mxCell>
        <mxCell id="Ym5PI7sJgfRGB3oKuW9N-84" value="策划" style="rounded=1;fillColor=#10739E;strokeColor=none;shadow=1;gradientColor=none;fontStyle=1;fontColor=#FFFFFF;fontSize=14;" vertex="1" parent="1">
          <mxGeometry x="760" y="950" width="60" height="60" as="geometry" />
        </mxCell>
        <mxCell id="Ym5PI7sJgfRGB3oKuW9N-85" value="" style="rounded=1;arcSize=10;dashed=1;fillColor=none;gradientColor=none;dashPattern=1 1;strokeWidth=2;strokeColor=#009900;" vertex="1" parent="1">
          <mxGeometry x="880" y="843" width="199.5" height="199.5" as="geometry" />
        </mxCell>
        <mxCell id="Ym5PI7sJgfRGB3oKuW9N-86" value="产品" style="rounded=1;fillColor=#10739E;strokeColor=none;shadow=1;gradientColor=none;fontStyle=1;fontColor=#FFFFFF;fontSize=14;" vertex="1" parent="1">
          <mxGeometry x="900" y="860" width="60" height="60" as="geometry" />
        </mxCell>
        <mxCell id="Ym5PI7sJgfRGB3oKuW9N-87" value="设计" style="rounded=1;fillColor=#10739E;strokeColor=none;shadow=1;gradientColor=none;fontStyle=1;fontColor=#FFFFFF;fontSize=14;" vertex="1" parent="1">
          <mxGeometry x="1000" y="860" width="60" height="60" as="geometry" />
        </mxCell>
        <mxCell id="Ym5PI7sJgfRGB3oKuW9N-88" value="开发" style="rounded=1;fillColor=#10739E;strokeColor=none;shadow=1;gradientColor=none;fontStyle=1;fontColor=#FFFFFF;fontSize=14;" vertex="1" parent="1">
          <mxGeometry x="900" y="950" width="60" height="60" as="geometry" />
        </mxCell>
        <mxCell id="Ym5PI7sJgfRGB3oKuW9N-89" value="运维" style="rounded=1;fillColor=#10739E;strokeColor=none;shadow=1;gradientColor=none;fontStyle=1;fontColor=#FFFFFF;fontSize=14;" vertex="1" parent="1">
          <mxGeometry x="1000" y="950" width="60" height="60" as="geometry" />
        </mxCell>
        <mxCell id="Ym5PI7sJgfRGB3oKuW9N-90" value="" style="edgeStyle=elbowEdgeStyle;elbow=vertical;strokeWidth=4;endArrow=block;endFill=1;fontStyle=1;strokeColor=#23445D;exitX=0.5;exitY=1;exitDx=0;exitDy=0;" edge="1" parent="1" source="Ym5PI7sJgfRGB3oKuW9N-75">
          <mxGeometry x="781" y="165" width="100" height="100" as="geometry">
            <mxPoint x="870" y="685.5" as="sourcePoint" />
            <mxPoint x="979" y="729.5" as="targetPoint" />
          </mxGeometry>
        </mxCell>
        <mxCell id="Ym5PI7sJgfRGB3oKuW9N-91" value="" style="rounded=1;arcSize=10;dashed=1;dashPattern=1 1;strokeWidth=2;strokeColor=#FF3333;" vertex="1" parent="1">
          <mxGeometry x="1130" y="843" width="199.5" height="199.5" as="geometry" />
        </mxCell>
        <mxCell id="Ym5PI7sJgfRGB3oKuW9N-92" value="PIC" style="rounded=1;fillColor=#FF6666;strokeColor=none;shadow=1;gradientColor=none;fontStyle=1;fontColor=#FFFFFF;fontSize=14;" vertex="1" parent="1">
          <mxGeometry x="1250" y="600" width="200" height="60" as="geometry" />
        </mxCell>
        <mxCell id="Ym5PI7sJgfRGB3oKuW9N-93" value="Ops" style="rounded=1;fillColor=#10739E;strokeColor=none;shadow=1;gradientColor=none;fontStyle=1;fontColor=#FFFFFF;fontSize=14;" vertex="1" parent="1">
          <mxGeometry x="1130" y="730" width="200" height="60" as="geometry" />
        </mxCell>
        <mxCell id="Ym5PI7sJgfRGB3oKuW9N-94" value="新媒体" style="rounded=1;fillColor=#10739E;strokeColor=none;shadow=1;gradientColor=none;fontStyle=1;fontColor=#FFFFFF;fontSize=14;" vertex="1" parent="1">
          <mxGeometry x="1150" y="860" width="60" height="60" as="geometry" />
        </mxCell>
        <mxCell id="Ym5PI7sJgfRGB3oKuW9N-95" value="" style="edgeStyle=elbowEdgeStyle;elbow=vertical;strokeWidth=4;endArrow=block;endFill=1;fontStyle=1;strokeColor=#23445D;" edge="1" parent="1" source="Ym5PI7sJgfRGB3oKuW9N-92" target="Ym5PI7sJgfRGB3oKuW9N-93">
          <mxGeometry x="1032" y="165.5" width="100" height="100" as="geometry">
            <mxPoint x="1032" y="265.5" as="sourcePoint" />
            <mxPoint x="1132" y="165.5" as="targetPoint" />
          </mxGeometry>
        </mxCell>
        <mxCell id="Ym5PI7sJgfRGB3oKuW9N-96" value="" style="edgeStyle=elbowEdgeStyle;elbow=vertical;strokeWidth=4;endArrow=block;endFill=1;fontStyle=1;strokeColor=#23445D;" edge="1" parent="1">
          <mxGeometry x="925" y="200" width="100" height="100" as="geometry">
            <mxPoint x="1225" y="790" as="sourcePoint" />
            <mxPoint x="1225" y="845" as="targetPoint" />
            <Array as="points">
              <mxPoint x="1225" y="830" />
            </Array>
          </mxGeometry>
        </mxCell>
        <mxCell id="Ym5PI7sJgfRGB3oKuW9N-97" value="Tech" style="rounded=1;fillColor=#10739E;strokeColor=none;shadow=1;gradientColor=none;fontStyle=1;fontColor=#FFFFFF;fontSize=14;" vertex="1" parent="1">
          <mxGeometry x="1360" y="730" width="200" height="60" as="geometry" />
        </mxCell>
        <mxCell id="Ym5PI7sJgfRGB3oKuW9N-98" value="" style="edgeStyle=elbowEdgeStyle;elbow=vertical;strokeWidth=4;endArrow=block;endFill=1;fontStyle=1;strokeColor=#23445D;" edge="1" parent="1" source="Ym5PI7sJgfRGB3oKuW9N-97">
          <mxGeometry x="1140" y="200" width="100" height="100" as="geometry">
            <mxPoint x="1140" y="300" as="sourcePoint" />
            <mxPoint x="1460" y="840" as="targetPoint" />
          </mxGeometry>
        </mxCell>
        <mxCell id="Ym5PI7sJgfRGB3oKuW9N-99" value="客服" style="rounded=1;fillColor=#10739E;strokeColor=none;shadow=1;gradientColor=none;fontStyle=1;fontColor=#FFFFFF;fontSize=14;" vertex="1" parent="1">
          <mxGeometry x="1250" y="860" width="60" height="60" as="geometry" />
        </mxCell>
        <mxCell id="Ym5PI7sJgfRGB3oKuW9N-100" value="运营" style="rounded=1;fillColor=#10739E;strokeColor=none;shadow=1;gradientColor=none;fontStyle=1;fontColor=#FFFFFF;fontSize=14;" vertex="1" parent="1">
          <mxGeometry x="1150" y="950" width="60" height="60" as="geometry" />
        </mxCell>
        <mxCell id="Ym5PI7sJgfRGB3oKuW9N-101" value="策划" style="rounded=1;fillColor=#10739E;strokeColor=none;shadow=1;gradientColor=none;fontStyle=1;fontColor=#FFFFFF;fontSize=14;" vertex="1" parent="1">
          <mxGeometry x="1250" y="950" width="60" height="60" as="geometry" />
        </mxCell>
        <mxCell id="Ym5PI7sJgfRGB3oKuW9N-102" value="" style="rounded=1;arcSize=10;dashed=1;fillColor=none;gradientColor=none;dashPattern=1 1;strokeWidth=2;strokeColor=#009900;" vertex="1" parent="1">
          <mxGeometry x="1370" y="843" width="199.5" height="199.5" as="geometry" />
        </mxCell>
        <mxCell id="Ym5PI7sJgfRGB3oKuW9N-103" value="产品" style="rounded=1;fillColor=#10739E;strokeColor=none;shadow=1;gradientColor=none;fontStyle=1;fontColor=#FFFFFF;fontSize=14;" vertex="1" parent="1">
          <mxGeometry x="1390" y="860" width="60" height="60" as="geometry" />
        </mxCell>
        <mxCell id="Ym5PI7sJgfRGB3oKuW9N-104" value="设计" style="rounded=1;fillColor=#10739E;strokeColor=none;shadow=1;gradientColor=none;fontStyle=1;fontColor=#FFFFFF;fontSize=14;" vertex="1" parent="1">
          <mxGeometry x="1490" y="860" width="60" height="60" as="geometry" />
        </mxCell>
        <mxCell id="Ym5PI7sJgfRGB3oKuW9N-105" value="开发" style="rounded=1;fillColor=#10739E;strokeColor=none;shadow=1;gradientColor=none;fontStyle=1;fontColor=#FFFFFF;fontSize=14;" vertex="1" parent="1">
          <mxGeometry x="1390" y="950" width="60" height="60" as="geometry" />
        </mxCell>
        <mxCell id="Ym5PI7sJgfRGB3oKuW9N-106" value="运维" style="rounded=1;fillColor=#10739E;strokeColor=none;shadow=1;gradientColor=none;fontStyle=1;fontColor=#FFFFFF;fontSize=14;" vertex="1" parent="1">
          <mxGeometry x="1490" y="950" width="60" height="60" as="geometry" />
        </mxCell>
        <mxCell id="Ym5PI7sJgfRGB3oKuW9N-107" value="" style="edgeStyle=elbowEdgeStyle;elbow=vertical;strokeWidth=4;endArrow=block;endFill=1;fontStyle=1;strokeColor=#23445D;exitX=0.5;exitY=1;exitDx=0;exitDy=0;" edge="1" parent="1" source="Ym5PI7sJgfRGB3oKuW9N-92">
          <mxGeometry x="1271" y="165" width="100" height="100" as="geometry">
            <mxPoint x="1360" y="685.5" as="sourcePoint" />
            <mxPoint x="1469" y="729.5" as="targetPoint" />
          </mxGeometry>
        </mxCell>
        <mxCell id="Ym5PI7sJgfRGB3oKuW9N-109" value="" style="edgeStyle=elbowEdgeStyle;elbow=vertical;strokeWidth=4;endArrow=block;endFill=1;fontStyle=1;strokeColor=#23445D;" edge="1" parent="1">
          <mxGeometry x="62" y="-60.5" width="100" height="100" as="geometry">
            <mxPoint x="380" y="434" as="sourcePoint" />
            <mxPoint x="380" y="594" as="targetPoint" />
          </mxGeometry>
        </mxCell>
        <mxCell id="Ym5PI7sJgfRGB3oKuW9N-110" value="" style="edgeStyle=elbowEdgeStyle;elbow=vertical;strokeWidth=4;endArrow=block;endFill=1;fontStyle=1;strokeColor=#23445D;" edge="1" parent="1">
          <mxGeometry x="541.5" y="-84.5" width="100" height="100" as="geometry">
            <mxPoint x="859.5" y="430" as="sourcePoint" />
            <mxPoint x="860" y="590" as="targetPoint" />
          </mxGeometry>
        </mxCell>
        <mxCell id="Ym5PI7sJgfRGB3oKuW9N-111" value="" style="edgeStyle=elbowEdgeStyle;elbow=vertical;strokeWidth=4;endArrow=block;endFill=1;fontStyle=1;strokeColor=#23445D;" edge="1" parent="1">
          <mxGeometry x="1031.5" y="-84.5" width="100" height="100" as="geometry">
            <mxPoint x="1349.5" y="430" as="sourcePoint" />
            <mxPoint x="1350" y="590" as="targetPoint" />
          </mxGeometry>
        </mxCell>
      </root>
    </mxGraphModel>
  </diagram>
</mxfile>
